o 
v 21.6299991607666 2.813999891281128 0
v 21.6299991607666 0 0
v 4.578000068664551 0 0
v 4.578000068664551 29.106000900268555 0
v 7.854000091552734 29.106000900268555 0
v 7.854000091552734 2.813999891281128 0
v 7.854000091552734 2.813999891281128 0
v 21.6299991607666 2.813999891281128 0
v 4.578000068664551 0 0
v 4.578000068664551 0 0
v 4.578000068664551 29.106000900268555 0
v 7.854000091552734 2.813999891281128 0
v 4.578000068664551 0 10
v 21.6299991607666 0 10
v 21.6299991607666 2.813999891281128 10
v 7.854000091552734 2.813999891281128 10
v 7.854000091552734 29.106000900268555 10
v 4.578000068664551 29.106000900268555 10
v 4.578000068664551 0 10
v 21.6299991607666 2.813999891281128 10
v 7.854000091552734 2.813999891281128 10
v 7.854000091552734 2.813999891281128 10
v 4.578000068664551 29.106000900268555 10
v 4.578000068664551 0 10
v 21.6299991607666 0 0
v 21.6299991607666 2.813999891281128 0
v 21.6299991607666 0 10
v 21.6299991607666 2.813999891281128 0
v 21.6299991607666 2.813999891281128 10
v 21.6299991607666 0 10
v 21.6299991607666 2.813999891281128 0
v 7.854000091552734 2.813999891281128 0
v 21.6299991607666 2.813999891281128 10
v 7.854000091552734 2.813999891281128 0
v 7.854000091552734 2.813999891281128 10
v 21.6299991607666 2.813999891281128 10
v 7.854000091552734 2.813999891281128 0
v 7.854000091552734 29.106000900268555 0
v 7.854000091552734 2.813999891281128 10
v 7.854000091552734 29.106000900268555 0
v 7.854000091552734 29.106000900268555 10
v 7.854000091552734 2.813999891281128 10
v 7.854000091552734 29.106000900268555 0
v 4.578000068664551 29.106000900268555 0
v 7.854000091552734 29.106000900268555 10
v 4.578000068664551 29.106000900268555 0
v 4.578000068664551 29.106000900268555 10
v 7.854000091552734 29.106000900268555 10
v 4.578000068664551 29.106000900268555 0
v 4.578000068664551 0 0
v 4.578000068664551 29.106000900268555 10
v 4.578000068664551 0 0
v 4.578000068664551 0 10
v 4.578000068664551 29.106000900268555 10
v 4.578000068664551 0 0
v 21.6299991607666 0 0
v 4.578000068664551 0 10
v 21.6299991607666 0 0
v 21.6299991607666 0 10
v 4.578000068664551 0 10
vt 21.6299991607666 2.813999891281128
vt 21.6299991607666 0
vt 4.578000068664551 0
vt 4.578000068664551 29.106000900268555
vt 7.854000091552734 29.106000900268555
vt 7.854000091552734 2.813999891281128
vt 7.854000091552734 2.813999891281128
vt 21.6299991607666 2.813999891281128
vt 4.578000068664551 0
vt 4.578000068664551 0
vt 4.578000068664551 29.106000900268555
vt 7.854000091552734 2.813999891281128
vt 4.578000068664551 0
vt 21.6299991607666 0
vt 21.6299991607666 2.813999891281128
vt 7.854000091552734 2.813999891281128
vt 7.854000091552734 29.106000900268555
vt 4.578000068664551 29.106000900268555
vt 4.578000068664551 0
vt 21.6299991607666 2.813999891281128
vt 7.854000091552734 2.813999891281128
vt 7.854000091552734 2.813999891281128
vt 4.578000068664551 29.106000900268555
vt 4.578000068664551 0
vt 0 1
vt 2.813999891281128 1
vt 0 -9
vt 2.813999891281128 1
vt 2.813999891281128 -9
vt 0 -9
vt 21.6299991607666 1
vt 7.854000091552734 1
vt 21.6299991607666 -9
vt 7.854000091552734 1
vt 7.854000091552734 -9
vt 21.6299991607666 -9
vt 2.813999891281128 1
vt 29.106000900268555 1
vt 2.813999891281128 -9
vt 29.106000900268555 1
vt 29.106000900268555 -9
vt 2.813999891281128 -9
vt 7.854000091552734 1
vt 4.578000068664551 1
vt 7.854000091552734 -9
vt 4.578000068664551 1
vt 4.578000068664551 -9
vt 7.854000091552734 -9
vt 29.106000900268555 1
vt 0 1
vt 29.106000900268555 -9
vt 0 1
vt 0 -9
vt 29.106000900268555 -9
vt 4.578000068664551 1
vt 21.6299991607666 1
vt 4.578000068664551 -9
vt 21.6299991607666 1
vt 21.6299991607666 -9
vt 4.578000068664551 -9
vn 0 0 -1
vn 0 0 -1
vn 0 0 -1
vn 0 0 -1
vn 0 0 -1
vn 0 0 -1
vn 0 0 -1
vn 0 0 -1
vn 0 0 -1
vn 0 0 -1
vn 0 0 -1
vn 0 0 -1
vn 0 0 1
vn 0 0 1
vn 0 0 1
vn 0 0 1
vn 0 0 1
vn 0 0 1
vn 0 0 1
vn 0 0 1
vn 0 0 1
vn 0 0 1
vn 0 0 1
vn 0 0 1
vn 1 0 0
vn 1 0 0
vn 1 0 0
vn 1 0 0
vn 1 0 0
vn 1 0 0
vn 0 1 0
vn 0 1 0
vn 0 1 0
vn 0 1 0
vn 0 1 0
vn 0 1 0
vn 1 0 0
vn 1 0 0
vn 1 0 0
vn 1 0 0
vn 1 0 0
vn 1 0 0
vn 0 1 0
vn 0 1 0
vn 0 1 0
vn 0 1 0
vn 0 1 0
vn 0 1 0
vn -1 0 0
vn -1 0 0
vn -1 0 0
vn -1 0 0
vn -1 0 0
vn -1 0 0
vn 0 -1 0
vn 0 -1 0
vn 0 -1 0
vn 0 -1 0
vn 0 -1 0
vn 0 -1 0
f 1/1/1 2/2/2 3/3/3
f 4/4/4 5/5/5 6/6/6
f 7/7/7 8/8/8 9/9/9
f 10/10/10 11/11/11 12/12/12
f 13/13/13 14/14/14 15/15/15
f 16/16/16 17/17/17 18/18/18
f 19/19/19 20/20/20 21/21/21
f 22/22/22 23/23/23 24/24/24
f 25/25/25 26/26/26 27/27/27
f 28/28/28 29/29/29 30/30/30
f 31/31/31 32/32/32 33/33/33
f 34/34/34 35/35/35 36/36/36
f 37/37/37 38/38/38 39/39/39
f 40/40/40 41/41/41 42/42/42
f 43/43/43 44/44/44 45/45/45
f 46/46/46 47/47/47 48/48/48
f 49/49/49 50/50/50 51/51/51
f 52/52/52 53/53/53 54/54/54
f 55/55/55 56/56/56 57/57/57
f 58/58/58 59/59/59 60/60/60
